<svg xmlns="http://www.w3.org/2000/svg" xmlns:xlink="http://www.w3.org/1999/xlink" width="500" zoomAndPan="magnify" viewBox="0 0 375 374.999991" height="500" preserveAspectRatio="xMidYMid meet" version="1.0"><defs><g/><clipPath id="cc824adbf7"><path d="M 37.5 163.644531 L 61 163.644531 L 61 211.644531 L 37.5 211.644531 Z M 37.5 163.644531 " clip-rule="nonzero"/></clipPath><clipPath id="5f654a084e"><path d="M 62 163.644531 L 84.75 163.644531 L 84.75 211.644531 L 62 211.644531 Z M 62 163.644531 " clip-rule="nonzero"/></clipPath></defs><rect x="-37.5" width="450" fill="#ffffff" y="-37.499999" height="449.999989" fill-opacity="1"/><rect x="-37.5" width="450" fill="#ffffff" y="-37.499999" height="449.999989" fill-opacity="1"/><g clip-path="url(#cc824adbf7)"><path fill="#3c50e0" d="M 60.042969 169.445312 C 60.042969 165.347656 56.136719 163.644531 54.046875 163.644531 C 52.792969 163.644531 50.300781 164.492188 48.933594 166.308594 C 48.265625 167.203125 47.964844 168.21875 48.042969 169.289062 C 46.796875 169.109375 44.777344 169.066406 43.542969 171.042969 C 42.660156 172.464844 42.566406 173.636719 42.664062 174.402344 C 41.371094 174.5625 39.066406 175.195312 38.179688 177.65625 C 37.507812 179.507812 37.625 181.417969 38.195312 182.9375 C 38.195312 182.941406 38.195312 182.945312 38.195312 182.949219 C 38.324219 183.378906 38.550781 183.839844 38.878906 184.289062 C 38.882812 184.292969 38.886719 184.300781 38.890625 184.304688 C 38.914062 184.335938 38.9375 184.371094 38.960938 184.402344 C 39.097656 184.589844 39.238281 184.765625 39.386719 184.921875 C 38.800781 185.398438 38.464844 186.085938 38.386719 187.351562 C 38.296875 188.769531 38.914062 190.480469 39.988281 191.363281 C 39.253906 192.109375 38.609375 193.234375 38.769531 195.601562 C 38.914062 197.058594 39.730469 198.539062 40.898438 199.464844 C 41.515625 199.949219 42.199219 200.246094 42.890625 200.351562 C 42.9375 200.367188 42.984375 200.378906 43.03125 200.382812 C 43.046875 200.382812 43.066406 200.382812 43.085938 200.386719 C 43.105469 200.386719 43.125 200.394531 43.144531 200.394531 C 43.261719 201.078125 43.640625 201.84375 44.082031 202.417969 C 44.808594 203.359375 45.738281 203.902344 46.75 203.988281 C 47.046875 205.152344 47.714844 206.890625 49.675781 207.128906 C 49.828125 208.230469 50.207031 209.140625 50.816406 209.851562 C 51.578125 210.734375 52.664062 211.25 53.953125 211.339844 C 54.082031 211.347656 54.214844 211.351562 54.34375 211.351562 C 55.886719 211.351562 57.480469 210.738281 58.582031 209.703125 C 59.53125 208.8125 60.050781 207.664062 60.042969 206.472656 L 60.042969 180.976562 C 60.042969 180.972656 60.042969 180.972656 60.042969 180.972656 L 60.042969 169.511719 C 60.042969 169.488281 60.042969 169.464844 60.042969 169.445312 Z M 58.667969 179.308594 C 58.097656 178.976562 57.40625 178.730469 56.6875 178.632812 C 54.753906 178.375 53.105469 179.257812 52.152344 181.082031 C 51.0625 183.378906 51.921875 185.109375 52.535156 185.933594 C 53.328125 187.007812 54.535156 187.722656 55.507812 187.722656 C 55.597656 187.722656 55.683594 187.714844 55.769531 187.703125 C 56.144531 187.648438 56.40625 187.300781 56.351562 186.925781 C 56.296875 186.550781 55.945312 186.285156 55.570312 186.34375 C 55.242188 186.390625 54.308594 186.023438 53.640625 185.117188 C 53.117188 184.410156 52.648438 183.238281 53.382812 181.695312 C 54.210938 180.109375 55.476562 179.890625 56.394531 179.984375 C 57.675781 180.113281 58.550781 180.839844 58.667969 181.101562 L 58.667969 206.476562 C 58.671875 207.511719 58.113281 208.257812 57.640625 208.703125 C 56.714844 209.570312 55.335938 210.054688 54.046875 209.96875 C 53.410156 209.921875 52.511719 209.710938 51.859375 208.953125 C 51.167969 208.148438 50.871094 206.859375 51 205.257812 C 51.09375 204.523438 52.011719 203.0625 53.234375 202.449219 C 53.941406 202.101562 54.613281 202.101562 55.230469 202.453125 C 55.5625 202.640625 55.980469 202.523438 56.167969 202.195312 C 56.355469 201.867188 56.242188 201.445312 55.910156 201.257812 C 54.882812 200.671875 53.742188 200.660156 52.621094 201.222656 C 52.597656 201.234375 52.574219 201.25 52.550781 201.261719 C 52.253906 200.960938 51.808594 200.75 51.25 200.6875 C 50.308594 200.582031 49.273438 200.898438 49.105469 201.714844 C 49.027344 202.089844 49.265625 202.453125 49.636719 202.527344 C 49.964844 202.597656 50.285156 202.421875 50.410156 202.125 C 50.542969 202.066406 50.878906 202.003906 51.222656 202.074219 C 51.28125 202.085938 51.332031 202.101562 51.375 202.117188 C 50.417969 203.019531 49.746094 204.214844 49.632812 205.117188 C 49.617188 205.320312 49.609375 205.519531 49.601562 205.714844 C 48.570312 205.449219 48.242188 204.398438 47.96875 203.15625 L 47.835938 202.5625 L 47.234375 202.617188 C 46.359375 202.699219 45.710938 202.199219 45.328125 201.765625 C 44.886719 201.269531 44.644531 200.714844 44.539062 200.335938 C 46.472656 200.050781 48.859375 198.847656 49.488281 195.5625 C 49.703125 195.484375 49.917969 195.390625 50.132812 195.261719 C 50.144531 195.253906 50.152344 195.246094 50.164062 195.238281 C 50.949219 194.800781 51.773438 194.085938 52.324219 193.171875 C 52.972656 192.109375 53.140625 190.960938 52.820312 189.859375 C 52.710938 189.496094 52.328125 189.285156 51.964844 189.394531 C 51.601562 189.5 51.390625 189.882812 51.5 190.246094 C 51.714844 190.980469 51.597656 191.722656 51.148438 192.460938 C 50.703125 193.199219 49.988281 193.796875 49.359375 194.117188 C 49.34375 194.125 49.328125 194.132812 49.3125 194.140625 C 49.109375 194.238281 48.917969 194.308594 48.746094 194.34375 C 47.277344 194.621094 45.804688 193.214844 45.789062 193.199219 C 45.519531 192.933594 45.082031 192.9375 44.816406 193.207031 C 44.550781 193.480469 44.554688 193.914062 44.824219 194.179688 C 44.90625 194.257812 46.296875 195.601562 48.03125 195.753906 C 47.46875 197.804688 46.011719 198.582031 44.839844 198.867188 L 43.742188 199.015625 C 43.675781 199.023438 43.609375 199.023438 43.542969 199.027344 C 43.390625 199.027344 43.273438 199.023438 43.214844 199.019531 C 43.207031 199.015625 43.199219 199.015625 43.195312 199.015625 C 43.183594 199.015625 43.175781 199.015625 43.167969 199.015625 C 43.167969 199.015625 43.164062 199.015625 43.164062 199.015625 C 42.578125 198.941406 42.089844 198.652344 41.753906 198.382812 C 40.878906 197.695312 40.246094 196.546875 40.140625 195.488281 C 39.980469 193.113281 40.742188 192.480469 41.546875 191.808594 L 42.679688 190.867188 L 41.335938 190.550781 C 40.472656 190.347656 39.675781 188.777344 39.757812 187.4375 C 39.828125 186.324219 40.078125 186.03125 40.558594 185.785156 C 41.269531 186.207031 42.140625 186.53125 43.1875 186.671875 C 43.429688 186.707031 43.664062 186.722656 43.894531 186.722656 C 44.6875 186.722656 45.394531 186.535156 46.015625 186.265625 C 46.328125 186.453125 46.980469 187.007812 46.941406 187.761719 C 46.882812 188.902344 46.082031 189.769531 46.0625 189.789062 C 45.800781 190.0625 45.808594 190.496094 46.082031 190.761719 C 46.214844 190.890625 46.386719 190.953125 46.558594 190.953125 C 46.738281 190.953125 46.921875 190.882812 47.054688 190.742188 C 47.101562 190.691406 48.230469 189.507812 48.316406 187.832031 C 48.363281 186.871094 47.871094 186.066406 47.289062 185.523438 C 48.175781 184.867188 48.695312 184.171875 48.738281 184.113281 C 48.960938 183.804688 48.890625 183.375 48.585938 183.152344 C 48.277344 182.929688 47.847656 182.996094 47.625 183.304688 C 47.613281 183.320312 46.871094 184.316406 45.664062 184.910156 C 45.664062 184.910156 45.660156 184.910156 45.660156 184.910156 C 45.019531 185.226562 44.246094 185.429688 43.375 185.3125 C 42.675781 185.214844 42.089844 185.023438 41.597656 184.78125 L 41.113281 184.511719 C 40.640625 184.207031 40.277344 183.851562 40.015625 183.507812 C 39.199219 182.292969 38.71875 180.203125 39.472656 178.125 C 40.222656 176.039062 42.480469 175.765625 43.25 175.730469 L 45.285156 177.832031 C 44.84375 178.085938 44.320312 178.242188 43.691406 178.269531 C 43.3125 178.289062 43.019531 178.609375 43.035156 178.988281 C 43.054688 179.355469 43.359375 179.644531 43.722656 179.644531 C 43.734375 179.644531 43.746094 179.644531 43.753906 179.644531 C 45.097656 179.582031 46.171875 179.117188 46.941406 178.257812 C 48.289062 176.757812 48.171875 174.621094 48.167969 174.53125 C 48.144531 174.152344 47.820312 173.867188 47.4375 173.886719 C 47.058594 173.910156 46.769531 174.238281 46.792969 174.617188 C 46.796875 174.628906 46.847656 175.847656 46.261719 176.863281 L 44.121094 174.652344 C 44.019531 174.386719 43.730469 173.34375 44.710938 171.769531 C 45.589844 170.359375 47.058594 170.496094 48.367188 170.738281 C 48.449219 170.753906 48.523438 170.769531 48.597656 170.78125 L 50.273438 172.222656 C 50.402344 172.335938 50.5625 172.390625 50.722656 172.390625 C 50.914062 172.390625 51.109375 172.308594 51.242188 172.148438 C 51.492188 171.863281 51.457031 171.425781 51.171875 171.179688 L 49.507812 169.75 C 49.277344 168.789062 49.453125 167.910156 50.035156 167.136719 C 51.089844 165.726562 53.175781 165.019531 54.046875 165.019531 C 55.28125 165.019531 58.660156 166.066406 58.667969 169.429688 C 58.667969 169.433594 58.667969 169.4375 58.667969 169.441406 L 58.667969 169.492188 C 58.644531 172.511719 56.683594 173.226562 56.445312 173.296875 C 56.140625 173.28125 55.875 173.476562 55.777344 173.769531 C 55.660156 174.128906 55.851562 174.519531 56.214844 174.636719 C 56.828125 174.84375 57.839844 174.136719 57.953125 174.054688 C 58.164062 173.902344 58.414062 173.691406 58.667969 173.414062 Z M 58.667969 179.308594 " fill-opacity="1" fill-rule="nonzero"/></g><g clip-path="url(#5f654a084e)"><path fill="#3c50e0" d="M 83.945312 187.363281 L 83.941406 187.316406 C 83.800781 186.089844 83.335938 185.382812 82.777344 184.925781 C 84.21875 183.417969 85.007812 180.46875 83.992188 177.65625 C 83.101562 175.195312 80.796875 174.5625 79.507812 174.402344 C 79.601562 173.636719 79.511719 172.464844 78.625 171.042969 C 77.398438 169.070312 75.386719 169.109375 74.140625 169.289062 C 74.253906 168.117188 73.957031 167.03125 73.261719 166.105469 C 71.992188 164.414062 69.707031 163.644531 68.121094 163.644531 C 66.03125 163.644531 62.125 165.347656 62.125 169.445312 C 62.125 169.464844 62.128906 169.484375 62.128906 169.503906 L 62.128906 206.46875 C 62.121094 207.664062 62.640625 208.8125 63.589844 209.703125 C 64.691406 210.738281 66.28125 211.351562 67.824219 211.351562 C 67.953125 211.351562 68.085938 211.347656 68.214844 211.339844 C 70.574219 211.175781 72.136719 209.617188 72.492188 207.128906 C 74.445312 206.894531 75.117188 205.164062 75.414062 204.003906 C 76.414062 203.964844 77.296875 203.59375 77.949219 202.933594 C 78.605469 202.261719 78.992188 201.316406 79.039062 200.3125 C 81.632812 199.941406 83.183594 198.417969 83.425781 195.96875 C 83.609375 194.113281 83.167969 192.5625 82.105469 191.351562 C 83.132812 190.636719 84.039062 189.492188 83.945312 187.363281 Z M 64.738281 207.386719 C 64.386719 207.386719 64.101562 207.105469 64.101562 206.753906 C 64.101562 206.402344 64.386719 206.121094 64.738281 206.121094 C 65.085938 206.121094 65.371094 206.402344 65.371094 206.753906 C 65.371094 207.105469 65.085938 207.386719 64.738281 207.386719 Z M 64.433594 207.949219 L 64.433594 208.605469 C 64.121094 208.292969 63.792969 207.847656 63.621094 207.28125 C 63.777344 207.609375 64.074219 207.859375 64.433594 207.949219 Z M 80.671875 190.609375 L 79.753906 191.085938 L 80.546875 191.75 C 81.308594 192.382812 82.289062 193.496094 82.058594 195.835938 C 81.859375 197.816406 80.628906 198.855469 78.289062 199.011719 L 77.574219 199.058594 L 77.652344 199.769531 C 77.742188 200.617188 77.488281 201.4375 76.964844 201.96875 C 76.578125 202.363281 76.0625 202.585938 75.453125 202.625 L 75.234375 195.449219 L 77.230469 193.636719 C 77.488281 193.8125 77.792969 193.914062 78.125 193.914062 C 79.003906 193.914062 79.714844 193.199219 79.714844 192.320312 C 79.714844 191.441406 79.003906 190.730469 78.125 190.730469 C 77.246094 190.730469 76.53125 191.441406 76.53125 192.320312 C 76.53125 192.652344 76.632812 192.957031 76.804688 193.210938 L 74.625 195.191406 L 74.847656 202.609375 L 74.332031 202.5625 L 74.203125 203.15625 C 73.898438 204.527344 73.527344 205.667969 72.214844 205.773438 L 72.214844 199.566406 L 71.34375 198.746094 L 71.34375 195.59375 L 73.257812 193.707031 C 73.457031 193.847656 73.703125 193.933594 73.964844 193.933594 C 74.648438 193.933594 75.203125 193.378906 75.203125 192.695312 C 75.203125 192.015625 74.648438 191.460938 73.964844 191.460938 C 73.28125 191.460938 72.726562 192.015625 72.726562 192.695312 C 72.726562 192.898438 72.78125 193.082031 72.863281 193.25 L 70.742188 195.34375 L 70.742188 198.183594 L 69.601562 197.113281 L 69.601562 192.808594 C 70.136719 192.671875 70.539062 192.191406 70.539062 191.613281 C 70.539062 190.933594 69.984375 190.378906 69.300781 190.378906 C 68.621094 190.378906 68.0625 190.933594 68.0625 191.613281 C 68.0625 192.191406 68.464844 192.671875 69 192.808594 L 69 197.375 L 71.613281 199.824219 L 71.613281 205.824219 C 71.550781 205.851562 71.492188 205.886719 71.441406 205.929688 C 71.429688 205.9375 71.417969 205.945312 71.410156 205.953125 C 71.40625 205.957031 71.40625 205.957031 71.402344 205.960938 C 71.308594 206.050781 71.238281 206.164062 71.207031 206.292969 C 71.203125 206.308594 71.203125 206.324219 71.199219 206.339844 C 71.191406 206.367188 71.1875 206.394531 71.183594 206.425781 C 71.09375 207.960938 70.515625 209.039062 69.523438 209.578125 L 68.3125 208.460938 L 68.3125 205.496094 C 68.847656 205.363281 69.246094 204.878906 69.246094 204.300781 C 69.246094 203.621094 68.691406 203.066406 68.011719 203.066406 C 67.328125 203.066406 66.773438 203.621094 66.773438 204.300781 C 66.773438 204.878906 67.171875 205.363281 67.710938 205.496094 L 67.710938 208.722656 L 68.90625 209.828125 C 68.660156 209.898438 68.402344 209.949219 68.121094 209.96875 C 67.050781 210.039062 65.921875 209.714844 65.039062 209.101562 L 65.039062 207.949219 C 65.574219 207.8125 65.972656 207.332031 65.972656 206.753906 C 65.972656 206.070312 65.417969 205.515625 64.734375 205.515625 C 64.097656 205.515625 63.578125 206.003906 63.511719 206.625 C 63.511719 206.574219 63.503906 206.527344 63.503906 206.472656 L 63.503906 200.597656 L 64.050781 201.191406 L 67.417969 201.191406 C 67.558594 201.75 68.0625 202.167969 68.664062 202.167969 C 69.375 202.167969 69.953125 201.589844 69.953125 200.875 C 69.953125 200.164062 69.375 199.585938 68.664062 199.585938 C 68.0625 199.585938 67.558594 200.003906 67.417969 200.5625 L 64.324219 200.5625 L 63.503906 199.671875 L 63.503906 195.867188 L 64.652344 195.867188 C 64.789062 196.484375 65.34375 196.949219 66.003906 196.949219 C 66.769531 196.949219 67.394531 196.324219 67.394531 195.558594 C 67.394531 194.792969 66.769531 194.167969 66.003906 194.167969 C 65.34375 194.167969 64.789062 194.632812 64.648438 195.25 L 63.503906 195.25 L 63.503906 186.230469 C 64.203125 186.226562 64.867188 186.226562 65.566406 186.226562 L 65.566406 189.265625 C 65.171875 189.355469 64.875 189.707031 64.875 190.125 C 64.875 190.613281 65.273438 191.007812 65.757812 191.007812 C 66.246094 191.007812 66.640625 190.613281 66.640625 190.125 C 66.640625 189.707031 66.347656 189.355469 65.953125 189.265625 L 65.953125 186.359375 C 66.664062 187.070312 67.351562 187.785156 68.046875 188.503906 L 68.3125 188.78125 L 68.59375 188.507812 L 68.324219 188.230469 C 67.9375 187.828125 67.550781 187.429688 67.160156 187.027344 L 70.199219 187.027344 C 70.289062 187.421875 70.636719 187.714844 71.058594 187.714844 C 71.546875 187.714844 71.941406 187.320312 71.941406 186.832031 C 71.941406 186.347656 71.546875 185.949219 71.058594 185.949219 C 70.636719 185.949219 70.289062 186.246094 70.199219 186.636719 L 66.777344 186.636719 C 66.53125 186.390625 66.289062 186.140625 66.042969 185.894531 L 65.984375 185.835938 L 65.902344 185.835938 C 65.078125 185.835938 64.316406 185.835938 63.503906 185.839844 L 63.503906 184.882812 C 65.746094 184.867188 67.992188 184.871094 70.199219 184.90625 C 70.285156 185.300781 70.636719 185.59375 71.058594 185.59375 C 71.546875 185.59375 71.941406 185.199219 71.941406 184.710938 C 71.941406 184.226562 71.546875 183.828125 71.058594 183.828125 C 70.640625 183.828125 70.289062 184.125 70.199219 184.515625 C 67.992188 184.484375 65.746094 184.476562 63.503906 184.496094 L 63.503906 182.8125 L 64.0625 183.417969 L 66.152344 183.417969 C 66.238281 183.765625 66.550781 184.023438 66.925781 184.023438 C 67.367188 184.023438 67.726562 183.664062 67.726562 183.222656 C 67.726562 182.78125 67.367188 182.421875 66.925781 182.421875 C 66.550781 182.421875 66.238281 182.683594 66.152344 183.027344 L 64.234375 183.027344 L 63.503906 182.238281 L 63.503906 180.054688 L 64.46875 179.597656 L 68.277344 181.011719 L 73.355469 178.613281 C 73.484375 178.78125 73.65625 178.910156 73.863281 178.984375 C 73.988281 179.027344 74.117188 179.050781 74.246094 179.050781 C 74.410156 179.050781 74.574219 179.015625 74.726562 178.941406 C 75.292969 178.675781 75.535156 178 75.269531 177.433594 C 75.140625 177.160156 74.910156 176.953125 74.628906 176.851562 C 74.34375 176.75 74.035156 176.765625 73.761719 176.894531 C 73.488281 177.023438 73.28125 177.25 73.179688 177.535156 C 73.105469 177.738281 73.09375 177.957031 73.140625 178.164062 L 68.253906 180.46875 L 65.101562 179.296875 L 68.074219 177.898438 L 68.925781 175.484375 L 72.777344 173.667969 C 72.996094 173.941406 73.320312 174.105469 73.664062 174.105469 C 73.824219 174.105469 73.988281 174.070312 74.144531 173.996094 C 74.710938 173.730469 74.953125 173.054688 74.6875 172.492188 L 74.6875 172.488281 C 74.417969 171.925781 73.742188 171.683594 73.179688 171.949219 C 72.691406 172.179688 72.445312 172.714844 72.558594 173.21875 L 68.523438 175.121094 L 67.671875 177.535156 L 63.503906 179.5 L 63.503906 173.410156 C 63.753906 173.691406 64.003906 173.902344 64.214844 174.054688 C 64.328125 174.136719 65.335938 174.84375 65.957031 174.636719 C 66.316406 174.519531 66.511719 174.128906 66.390625 173.769531 C 66.292969 173.480469 66.027344 173.296875 65.738281 173.296875 C 65.734375 173.296875 65.730469 173.296875 65.722656 173.296875 C 65.484375 173.226562 63.523438 172.511719 63.503906 169.488281 L 63.503906 169.441406 C 63.503906 169.4375 63.503906 169.433594 63.503906 169.429688 C 63.511719 166.378906 66.285156 165.238281 67.722656 165.050781 L 67.28125 165.460938 L 67.28125 168.757812 C 66.738281 168.871094 66.328125 169.355469 66.328125 169.929688 C 66.328125 170.59375 66.867188 171.132812 67.53125 171.132812 C 68.191406 171.132812 68.730469 170.59375 68.730469 169.929688 C 68.730469 169.355469 68.324219 168.871094 67.78125 168.757812 L 67.78125 165.679688 L 68.472656 165.042969 C 69.726562 165.144531 71.300781 165.785156 72.160156 166.929688 C 72.765625 167.734375 72.929688 168.6875 72.664062 169.757812 L 71.863281 170.535156 C 71.59375 170.800781 71.585938 171.234375 71.851562 171.507812 C 71.984375 171.644531 72.164062 171.714844 72.34375 171.714844 C 72.515625 171.714844 72.6875 171.648438 72.824219 171.519531 L 73.585938 170.78125 C 73.652344 170.769531 73.726562 170.753906 73.804688 170.742188 C 75.113281 170.5 76.578125 170.359375 77.457031 171.769531 C 78.410156 173.296875 78.167969 174.324219 78.0625 174.617188 L 77.355469 175.214844 C 77.0625 175.460938 77.027344 175.894531 77.273438 176.183594 C 77.410156 176.347656 77.601562 176.429688 77.796875 176.429688 C 77.957031 176.429688 78.113281 176.375 78.242188 176.265625 L 78.878906 175.730469 C 79.59375 175.753906 81.832031 175.996094 82.644531 178 L 76.6875 178 L 73.3125 181.476562 L 73.3125 184.988281 C 72.722656 185.121094 72.277344 185.648438 72.277344 186.28125 C 72.277344 187.015625 72.875 187.609375 73.605469 187.609375 C 74.339844 187.609375 74.9375 187.015625 74.9375 186.28125 C 74.9375 185.648438 74.492188 185.121094 73.902344 184.988281 L 73.902344 181.714844 L 76.933594 178.589844 L 82.84375 178.589844 C 83.265625 180.113281 83.058594 181.605469 82.574219 182.722656 L 77.789062 182.722656 L 75.835938 184.976562 L 75.835938 187.136719 C 75.242188 187.269531 74.800781 187.796875 74.800781 188.429688 C 74.800781 189.160156 75.394531 189.757812 76.128906 189.757812 C 76.863281 189.757812 77.457031 189.160156 77.457031 188.429688 C 77.457031 187.796875 77.015625 187.269531 76.421875 187.136719 L 76.421875 185.195312 L 78.058594 183.308594 L 82.273438 183.308594 C 82.007812 183.757812 81.695312 184.105469 81.371094 184.324219 L 79.414062 184.324219 C 79.035156 184.324219 78.726562 184.628906 78.726562 185.011719 C 78.726562 185.390625 79.035156 185.699219 79.414062 185.699219 L 81.417969 185.699219 C 82.082031 186.015625 82.449219 186.40625 82.574219 187.449219 C 82.644531 189.21875 81.898438 189.972656 80.671875 190.609375 Z M 77.136719 192.320312 C 77.136719 191.773438 77.578125 191.332031 78.125 191.332031 C 78.671875 191.332031 79.113281 191.773438 79.113281 192.320312 C 79.113281 192.867188 78.671875 193.308594 78.125 193.308594 C 77.578125 193.308594 77.136719 192.867188 77.136719 192.320312 Z M 73.332031 192.695312 C 73.332031 192.347656 73.613281 192.0625 73.964844 192.0625 C 74.316406 192.0625 74.597656 192.347656 74.597656 192.695312 C 74.597656 193.046875 74.316406 193.332031 73.964844 193.332031 C 73.613281 193.332031 73.332031 193.046875 73.332031 192.695312 Z M 69.300781 192.25 C 68.949219 192.25 68.667969 191.964844 68.667969 191.613281 C 68.667969 191.265625 68.949219 190.980469 69.300781 190.980469 C 69.652344 190.980469 69.933594 191.265625 69.933594 191.613281 C 69.933594 191.964844 69.652344 192.25 69.300781 192.25 Z M 68.011719 204.9375 C 67.660156 204.9375 67.375 204.652344 67.375 204.300781 C 67.375 203.953125 67.660156 203.667969 68.011719 203.667969 C 68.359375 203.667969 68.644531 203.953125 68.644531 204.300781 C 68.644531 204.652344 68.359375 204.9375 68.011719 204.9375 Z M 68.003906 200.878906 C 68.003906 200.511719 68.300781 200.214844 68.664062 200.214844 C 69.03125 200.214844 69.328125 200.511719 69.328125 200.878906 C 69.328125 201.242188 69.03125 201.539062 68.664062 201.539062 C 68.300781 201.539062 68.003906 201.242188 68.003906 200.878906 Z M 65.226562 195.558594 C 65.226562 195.128906 65.578125 194.78125 66.003906 194.78125 C 66.433594 194.78125 66.78125 195.128906 66.78125 195.558594 C 66.78125 195.988281 66.433594 196.335938 66.003906 196.335938 C 65.578125 196.335938 65.226562 195.988281 65.226562 195.558594 Z M 65.761719 189.632812 C 66.03125 189.632812 66.253906 189.855469 66.253906 190.125 C 66.253906 190.398438 66.03125 190.617188 65.761719 190.617188 C 65.488281 190.617188 65.265625 190.398438 65.265625 190.125 C 65.265625 189.855469 65.488281 189.632812 65.761719 189.632812 Z M 70.566406 186.832031 C 70.566406 186.5625 70.785156 186.339844 71.058594 186.339844 C 71.332031 186.339844 71.550781 186.5625 71.550781 186.832031 C 71.550781 187.105469 71.332031 187.324219 71.058594 187.324219 C 70.785156 187.324219 70.566406 187.105469 70.566406 186.832031 Z M 70.566406 184.710938 C 70.566406 184.441406 70.785156 184.21875 71.058594 184.21875 C 71.332031 184.21875 71.550781 184.441406 71.550781 184.710938 C 71.550781 184.984375 71.332031 185.207031 71.058594 185.207031 C 70.785156 185.207031 70.566406 184.984375 70.566406 184.710938 Z M 66.515625 183.222656 C 66.515625 182.996094 66.699219 182.8125 66.925781 182.8125 C 67.152344 182.8125 67.335938 182.996094 67.335938 183.222656 C 67.335938 183.449219 67.152344 183.632812 66.925781 183.632812 C 66.699219 183.632812 66.515625 183.449219 66.515625 183.222656 Z M 73.648438 177.703125 C 73.707031 177.546875 73.820312 177.417969 73.976562 177.347656 C 74.0625 177.304688 74.152344 177.285156 74.242188 177.285156 C 74.316406 177.285156 74.386719 177.296875 74.457031 177.324219 C 74.617188 177.378906 74.746094 177.496094 74.816406 177.648438 C 74.964844 177.964844 74.828125 178.339844 74.515625 178.488281 C 74.363281 178.5625 74.191406 178.570312 74.03125 178.511719 C 73.871094 178.457031 73.746094 178.339844 73.671875 178.1875 C 73.601562 178.035156 73.59375 177.863281 73.648438 177.703125 Z M 73.390625 172.402344 C 73.480469 172.359375 73.570312 172.339844 73.660156 172.339844 C 73.898438 172.339844 74.125 172.476562 74.234375 172.703125 C 74.382812 173.019531 74.246094 173.398438 73.933594 173.546875 C 73.617188 173.695312 73.238281 173.558594 73.089844 173.242188 C 72.941406 172.929688 73.078125 172.550781 73.390625 172.402344 Z M 67.53125 169.230469 C 67.917969 169.230469 68.230469 169.542969 68.230469 169.929688 C 68.230469 170.316406 67.917969 170.632812 67.53125 170.632812 C 67.144531 170.632812 66.828125 170.316406 66.828125 169.929688 C 66.828125 169.542969 67.144531 169.230469 67.53125 169.230469 Z M 73.605469 185.539062 C 74.015625 185.539062 74.347656 185.871094 74.347656 186.28125 C 74.347656 186.691406 74.015625 187.023438 73.605469 187.023438 C 73.199219 187.023438 72.863281 186.691406 72.863281 186.28125 C 72.863281 185.871094 73.199219 185.539062 73.605469 185.539062 Z M 76.128906 187.6875 C 76.539062 187.6875 76.871094 188.019531 76.871094 188.429688 C 76.871094 188.839844 76.539062 189.171875 76.128906 189.171875 C 75.71875 189.171875 75.386719 188.839844 75.386719 188.429688 C 75.386719 188.019531 75.71875 187.6875 76.128906 187.6875 Z M 76.128906 187.6875 " fill-opacity="1" fill-rule="nonzero"/></g><g fill="#000000" fill-opacity="1"><g transform="translate(92.296873, 192.374987)"><g><path d="M 8.5625 0 L 8.09375 -1.546875 L 4.234375 -1.546875 L 3.78125 0 L 0.15625 0 L 4.171875 -11.015625 L 8.28125 -11.015625 L 12.296875 0 Z M 4.96875 -4.015625 L 7.359375 -4.015625 L 6.203125 -7.9375 L 6.140625 -7.9375 Z M 4.96875 -4.015625 "/></g></g></g><g fill="#000000" fill-opacity="1"><g transform="translate(104.741887, 192.374987)"><g><path d="M 6.09375 -8.65625 C 6.34375 -8.65625 6.5625 -8.625 6.75 -8.5625 C 6.945312 -8.507812 7.046875 -8.476562 7.046875 -8.46875 L 7.046875 -5.796875 L 6.015625 -5.796875 C 5.359375 -5.796875 4.878906 -5.625 4.578125 -5.28125 C 4.285156 -4.9375 4.140625 -4.429688 4.140625 -3.765625 L 4.140625 0 L 0.953125 0 L 0.953125 -8.453125 L 3.5625 -8.453125 L 3.78125 -7.171875 C 3.96875 -7.660156 4.269531 -8.03125 4.6875 -8.28125 C 5.101562 -8.53125 5.570312 -8.65625 6.09375 -8.65625 Z M 6.09375 -8.65625 "/></g></g></g><g fill="#000000" fill-opacity="1"><g transform="translate(111.844181, 192.374987)"><g><path d="M 6.59375 -8.453125 L 6.59375 -6.28125 L 4.796875 -6.28125 L 4.796875 -3.078125 C 4.796875 -2.691406 4.859375 -2.410156 4.984375 -2.234375 C 5.117188 -2.054688 5.359375 -1.96875 5.703125 -1.96875 L 6.59375 -1.96875 L 6.59375 -0.09375 C 6.332031 -0.0078125 6 0.0546875 5.59375 0.109375 C 5.1875 0.160156 4.835938 0.1875 4.546875 0.1875 C 3.609375 0.1875 2.882812 0.0195312 2.375 -0.3125 C 1.863281 -0.65625 1.609375 -1.238281 1.609375 -2.0625 L 1.609375 -6.28125 L 0.4375 -6.28125 L 0.4375 -8.453125 L 1.75 -8.453125 L 2.4375 -11.015625 L 4.796875 -11.015625 L 4.796875 -8.453125 Z M 6.59375 -8.453125 "/></g></g></g><g fill="#000000" fill-opacity="1"><g transform="translate(118.946476, 192.374987)"><g><path d="M 1.078125 -9.4375 L 1.078125 -11.59375 L 4.25 -11.59375 L 4.25 -9.4375 Z M 1.078125 0 L 1.078125 -8.453125 L 4.25 -8.453125 L 4.25 0 Z M 1.078125 0 "/></g></g></g><g fill="#000000" fill-opacity="1"><g transform="translate(124.273197, 192.374987)"><g><path d="M 4.40625 -11.796875 C 4.632812 -11.796875 4.925781 -11.765625 5.28125 -11.703125 C 5.632812 -11.640625 5.914062 -11.570312 6.125 -11.5 L 6.125 -9.625 L 5.390625 -9.625 C 5.046875 -9.625 4.8125 -9.5625 4.6875 -9.4375 C 4.5625 -9.3125 4.5 -9.09375 4.5 -8.78125 L 4.5 -8.453125 L 6.125 -8.453125 L 6.125 -6.28125 L 4.5 -6.28125 L 4.5 0 L 1.3125 0 L 1.3125 -6.28125 L 0.125 -6.28125 L 0.125 -8.453125 L 1.3125 -8.453125 L 1.3125 -8.796875 C 1.3125 -9.890625 1.578125 -10.660156 2.109375 -11.109375 C 2.640625 -11.566406 3.40625 -11.796875 4.40625 -11.796875 Z M 4.40625 -11.796875 "/></g></g></g><g fill="#000000" fill-opacity="1"><g transform="translate(130.495704, 192.374987)"><g><path d="M 1.078125 -9.4375 L 1.078125 -11.59375 L 4.25 -11.59375 L 4.25 -9.4375 Z M 1.078125 0 L 1.078125 -8.453125 L 4.25 -8.453125 L 4.25 0 Z M 1.078125 0 "/></g></g></g><g fill="#000000" fill-opacity="1"><g transform="translate(135.822425, 192.374987)"><g><path d="M 5.328125 -8.640625 C 6.710938 -8.640625 7.832031 -8.34375 8.6875 -7.75 C 9.550781 -7.15625 9.984375 -6.253906 9.984375 -5.046875 L 6.890625 -5.046875 C 6.890625 -6.003906 6.367188 -6.484375 5.328125 -6.484375 C 4.285156 -6.484375 3.765625 -5.878906 3.765625 -4.671875 L 3.765625 -3.765625 C 3.765625 -2.566406 4.304688 -1.96875 5.390625 -1.96875 C 6.484375 -1.96875 7.03125 -2.457031 7.03125 -3.4375 L 9.984375 -3.4375 C 9.984375 -2.207031 9.550781 -1.296875 8.6875 -0.703125 C 7.832031 -0.109375 6.710938 0.1875 5.328125 0.1875 C 3.847656 0.1875 2.6875 -0.179688 1.84375 -0.921875 C 1 -1.671875 0.578125 -2.769531 0.578125 -4.21875 C 0.578125 -5.675781 1 -6.773438 1.84375 -7.515625 C 2.6875 -8.265625 3.847656 -8.640625 5.328125 -8.640625 Z M 5.328125 -8.640625 "/></g></g></g><g fill="#000000" fill-opacity="1"><g transform="translate(146.491865, 192.374987)"><g><path d="M 1.078125 -9.4375 L 1.078125 -11.59375 L 4.25 -11.59375 L 4.25 -9.4375 Z M 1.078125 0 L 1.078125 -8.453125 L 4.25 -8.453125 L 4.25 0 Z M 1.078125 0 "/></g></g></g><g fill="#000000" fill-opacity="1"><g transform="translate(151.818586, 192.374987)"><g><path d="M 5.140625 -8.640625 C 6.429688 -8.640625 7.476562 -8.421875 8.28125 -7.984375 C 9.09375 -7.554688 9.5 -6.859375 9.5 -5.890625 L 9.5 -2.59375 C 9.5 -2.40625 9.539062 -2.253906 9.625 -2.140625 C 9.71875 -2.023438 9.847656 -1.96875 10.015625 -1.96875 L 10.59375 -1.96875 L 10.59375 -0.125 C 10.5625 -0.101562 10.476562 -0.0664062 10.34375 -0.015625 C 10.207031 0.0234375 10.015625 0.0664062 9.765625 0.109375 C 9.523438 0.160156 9.242188 0.1875 8.921875 0.1875 C 8.304688 0.1875 7.796875 0.09375 7.390625 -0.09375 C 6.992188 -0.28125 6.722656 -0.535156 6.578125 -0.859375 C 6.171875 -0.546875 5.71875 -0.289062 5.21875 -0.09375 C 4.71875 0.09375 4.128906 0.1875 3.453125 0.1875 C 1.472656 0.1875 0.484375 -0.597656 0.484375 -2.171875 C 0.484375 -2.992188 0.703125 -3.617188 1.140625 -4.046875 C 1.585938 -4.484375 2.222656 -4.78125 3.046875 -4.9375 C 3.878906 -5.101562 4.96875 -5.1875 6.3125 -5.1875 L 6.3125 -5.59375 C 6.3125 -5.925781 6.195312 -6.175781 5.96875 -6.34375 C 5.738281 -6.519531 5.445312 -6.609375 5.09375 -6.609375 C 4.757812 -6.609375 4.472656 -6.546875 4.234375 -6.421875 C 3.992188 -6.304688 3.875 -6.125 3.875 -5.875 L 3.875 -5.8125 L 0.734375 -5.8125 C 0.722656 -5.863281 0.71875 -5.9375 0.71875 -6.03125 C 0.71875 -6.832031 1.097656 -7.46875 1.859375 -7.9375 C 2.628906 -8.40625 3.722656 -8.640625 5.140625 -8.640625 Z M 6.3125 -3.6875 C 5.40625 -3.6875 4.734375 -3.585938 4.296875 -3.390625 C 3.867188 -3.191406 3.65625 -2.925781 3.65625 -2.59375 C 3.65625 -2.0625 4.019531 -1.796875 4.75 -1.796875 C 5.164062 -1.796875 5.53125 -1.90625 5.84375 -2.125 C 6.15625 -2.351562 6.3125 -2.628906 6.3125 -2.953125 Z M 6.3125 -3.6875 "/></g></g></g><g fill="#000000" fill-opacity="1"><g transform="translate(162.488026, 192.374987)"><g><path d="M 1.078125 0 L 1.078125 -11.59375 L 4.25 -11.59375 L 4.25 0 Z M 1.078125 0 "/></g></g></g><g fill="#000000" fill-opacity="1"><g transform="translate(167.814747, 192.374987)"><g/></g></g><g fill="#000000" fill-opacity="1"><g transform="translate(173.141468, 192.374987)"><g><path d="M 7.515625 -8.1875 L 7.515625 0 L 3.984375 0 L 3.984375 -8.1875 L 0.375 -8.1875 L 0.375 -11.015625 L 11.125 -11.015625 L 11.125 -8.1875 Z M 7.515625 -8.1875 "/></g></g></g><g fill="#000000" fill-opacity="1"><g transform="translate(184.690696, 192.374987)"><g><path d="M 5.328125 -8.640625 C 6.867188 -8.640625 8.046875 -8.273438 8.859375 -7.546875 C 9.679688 -6.828125 10.09375 -5.71875 10.09375 -4.21875 L 10.09375 -3.6875 L 3.765625 -3.6875 C 3.765625 -3.070312 3.898438 -2.609375 4.171875 -2.296875 C 4.441406 -1.992188 4.867188 -1.84375 5.453125 -1.84375 C 5.984375 -1.84375 6.375 -1.953125 6.625 -2.171875 C 6.882812 -2.398438 7.015625 -2.703125 7.015625 -3.078125 L 10.09375 -3.078125 C 10.09375 -2.046875 9.703125 -1.242188 8.921875 -0.671875 C 8.148438 -0.0976562 7.015625 0.1875 5.515625 0.1875 C 3.953125 0.1875 2.738281 -0.175781 1.875 -0.90625 C 1.007812 -1.632812 0.578125 -2.738281 0.578125 -4.21875 C 0.578125 -5.675781 1 -6.773438 1.84375 -7.515625 C 2.6875 -8.265625 3.847656 -8.640625 5.328125 -8.640625 Z M 5.453125 -6.609375 C 4.453125 -6.609375 3.894531 -6.132812 3.78125 -5.1875 L 6.875 -5.1875 C 6.875 -5.625 6.75 -5.96875 6.5 -6.21875 C 6.25 -6.476562 5.898438 -6.609375 5.453125 -6.609375 Z M 5.453125 -6.609375 "/></g></g></g><g fill="#000000" fill-opacity="1"><g transform="translate(195.360137, 192.374987)"><g><path d="M 5.140625 -8.640625 C 6.429688 -8.640625 7.476562 -8.421875 8.28125 -7.984375 C 9.09375 -7.554688 9.5 -6.859375 9.5 -5.890625 L 9.5 -2.59375 C 9.5 -2.40625 9.539062 -2.253906 9.625 -2.140625 C 9.71875 -2.023438 9.847656 -1.96875 10.015625 -1.96875 L 10.59375 -1.96875 L 10.59375 -0.125 C 10.5625 -0.101562 10.476562 -0.0664062 10.34375 -0.015625 C 10.207031 0.0234375 10.015625 0.0664062 9.765625 0.109375 C 9.523438 0.160156 9.242188 0.1875 8.921875 0.1875 C 8.304688 0.1875 7.796875 0.09375 7.390625 -0.09375 C 6.992188 -0.28125 6.722656 -0.535156 6.578125 -0.859375 C 6.171875 -0.546875 5.71875 -0.289062 5.21875 -0.09375 C 4.71875 0.09375 4.128906 0.1875 3.453125 0.1875 C 1.472656 0.1875 0.484375 -0.597656 0.484375 -2.171875 C 0.484375 -2.992188 0.703125 -3.617188 1.140625 -4.046875 C 1.585938 -4.484375 2.222656 -4.78125 3.046875 -4.9375 C 3.878906 -5.101562 4.96875 -5.1875 6.3125 -5.1875 L 6.3125 -5.59375 C 6.3125 -5.925781 6.195312 -6.175781 5.96875 -6.34375 C 5.738281 -6.519531 5.445312 -6.609375 5.09375 -6.609375 C 4.757812 -6.609375 4.472656 -6.546875 4.234375 -6.421875 C 3.992188 -6.304688 3.875 -6.125 3.875 -5.875 L 3.875 -5.8125 L 0.734375 -5.8125 C 0.722656 -5.863281 0.71875 -5.9375 0.71875 -6.03125 C 0.71875 -6.832031 1.097656 -7.46875 1.859375 -7.9375 C 2.628906 -8.40625 3.722656 -8.640625 5.140625 -8.640625 Z M 6.3125 -3.6875 C 5.40625 -3.6875 4.734375 -3.585938 4.296875 -3.390625 C 3.867188 -3.191406 3.65625 -2.925781 3.65625 -2.59375 C 3.65625 -2.0625 4.019531 -1.796875 4.75 -1.796875 C 5.164062 -1.796875 5.53125 -1.90625 5.84375 -2.125 C 6.15625 -2.351562 6.3125 -2.628906 6.3125 -2.953125 Z M 6.3125 -3.6875 "/></g></g></g><g fill="#000000" fill-opacity="1"><g transform="translate(206.029577, 192.374987)"><g><path d="M 5.328125 -8.640625 C 6.710938 -8.640625 7.832031 -8.34375 8.6875 -7.75 C 9.550781 -7.15625 9.984375 -6.253906 9.984375 -5.046875 L 6.890625 -5.046875 C 6.890625 -6.003906 6.367188 -6.484375 5.328125 -6.484375 C 4.285156 -6.484375 3.765625 -5.878906 3.765625 -4.671875 L 3.765625 -3.765625 C 3.765625 -2.566406 4.304688 -1.96875 5.390625 -1.96875 C 6.484375 -1.96875 7.03125 -2.457031 7.03125 -3.4375 L 9.984375 -3.4375 C 9.984375 -2.207031 9.550781 -1.296875 8.6875 -0.703125 C 7.832031 -0.109375 6.710938 0.1875 5.328125 0.1875 C 3.847656 0.1875 2.6875 -0.179688 1.84375 -0.921875 C 1 -1.671875 0.578125 -2.769531 0.578125 -4.21875 C 0.578125 -5.675781 1 -6.773438 1.84375 -7.515625 C 2.6875 -8.265625 3.847656 -8.640625 5.328125 -8.640625 Z M 5.328125 -8.640625 "/></g></g></g><g fill="#000000" fill-opacity="1"><g transform="translate(216.699018, 192.374987)"><g><path d="M 4.140625 -7.5625 C 4.484375 -7.90625 4.882812 -8.171875 5.34375 -8.359375 C 5.800781 -8.546875 6.28125 -8.640625 6.78125 -8.640625 C 7.757812 -8.640625 8.492188 -8.367188 8.984375 -7.828125 C 9.484375 -7.285156 9.734375 -6.5 9.734375 -5.46875 L 9.734375 0 L 6.546875 0 L 6.546875 -5.09375 C 6.546875 -5.445312 6.453125 -5.734375 6.265625 -5.953125 C 6.078125 -6.171875 5.8125 -6.28125 5.46875 -6.28125 C 5.070312 -6.28125 4.75 -6.148438 4.5 -5.890625 C 4.257812 -5.640625 4.140625 -5.328125 4.140625 -4.953125 L 4.140625 0 L 0.953125 0 L 0.953125 -11.59375 L 4.140625 -11.59375 Z M 4.140625 -7.5625 "/></g></g></g><g fill="#000000" fill-opacity="1"><g transform="translate(227.368458, 192.374987)"><g><path d="M 1.078125 -9.4375 L 1.078125 -11.59375 L 4.25 -11.59375 L 4.25 -9.4375 Z M 1.078125 0 L 1.078125 -8.453125 L 4.25 -8.453125 L 4.25 0 Z M 1.078125 0 "/></g></g></g><g fill="#000000" fill-opacity="1"><g transform="translate(232.695179, 192.374987)"><g><path d="M 6.78125 -8.640625 C 7.757812 -8.640625 8.492188 -8.367188 8.984375 -7.828125 C 9.484375 -7.285156 9.734375 -6.5 9.734375 -5.46875 L 9.734375 0 L 6.546875 0 L 6.546875 -5.09375 C 6.546875 -5.445312 6.453125 -5.734375 6.265625 -5.953125 C 6.078125 -6.171875 5.8125 -6.28125 5.46875 -6.28125 C 5.070312 -6.28125 4.75 -6.148438 4.5 -5.890625 C 4.257812 -5.640625 4.140625 -5.328125 4.140625 -4.953125 L 4.140625 0 L 0.953125 0 L 0.953125 -8.453125 L 3.5625 -8.453125 L 3.78125 -7.171875 C 4.101562 -7.617188 4.535156 -7.972656 5.078125 -8.234375 C 5.617188 -8.503906 6.1875 -8.640625 6.78125 -8.640625 Z M 6.78125 -8.640625 "/></g></g></g><g fill="#000000" fill-opacity="1"><g transform="translate(243.364619, 192.374987)"><g><path d="M 10.46875 -10.03125 C 10.46875 -9.382812 10.300781 -8.882812 9.96875 -8.53125 C 9.644531 -8.175781 9.160156 -7.914062 8.515625 -7.75 C 8.816406 -7.507812 9.054688 -7.234375 9.234375 -6.921875 C 9.410156 -6.609375 9.5 -6.273438 9.5 -5.921875 C 9.5 -5.023438 9.160156 -4.347656 8.484375 -3.890625 C 7.804688 -3.429688 6.960938 -3.203125 5.953125 -3.203125 L 4.734375 -3.203125 C 4.066406 -3.203125 3.734375 -3.046875 3.734375 -2.734375 C 3.734375 -2.585938 3.804688 -2.46875 3.953125 -2.375 C 4.097656 -2.28125 4.359375 -2.234375 4.734375 -2.234375 L 7.609375 -2.234375 C 8.554688 -2.234375 9.269531 -1.988281 9.75 -1.5 C 10.226562 -1.007812 10.46875 -0.351562 10.46875 0.46875 C 10.46875 1.070312 10.304688 1.59375 9.984375 2.03125 C 9.660156 2.46875 9.226562 2.796875 8.6875 3.015625 C 8.144531 3.242188 7.550781 3.359375 6.90625 3.359375 L 2.203125 3.359375 C 1.816406 3.359375 1.460938 3.265625 1.140625 3.078125 C 0.816406 2.898438 0.554688 2.65625 0.359375 2.34375 C 0.171875 2.03125 0.078125 1.679688 0.078125 1.296875 C 0.078125 0.878906 0.203125 0.5 0.453125 0.15625 C 0.710938 -0.175781 1.035156 -0.425781 1.421875 -0.59375 C 1.171875 -0.769531 0.96875 -0.984375 0.8125 -1.234375 C 0.664062 -1.492188 0.59375 -1.773438 0.59375 -2.078125 C 0.59375 -2.492188 0.742188 -2.867188 1.046875 -3.203125 C 1.359375 -3.546875 1.742188 -3.773438 2.203125 -3.890625 C 1.785156 -4.148438 1.453125 -4.453125 1.203125 -4.796875 C 0.960938 -5.148438 0.84375 -5.519531 0.84375 -5.90625 C 0.84375 -6.882812 1.238281 -7.582031 2.03125 -8 C 2.832031 -8.425781 3.890625 -8.640625 5.203125 -8.640625 C 5.773438 -8.640625 6.238281 -8.609375 6.59375 -8.546875 C 7.113281 -8.878906 7.453125 -9.179688 7.609375 -9.453125 C 7.765625 -9.722656 7.84375 -9.914062 7.84375 -10.03125 Z M 5.171875 -6.96875 C 4.816406 -6.96875 4.523438 -6.878906 4.296875 -6.703125 C 4.078125 -6.523438 3.96875 -6.265625 3.96875 -5.921875 C 3.96875 -5.566406 4.070312 -5.300781 4.28125 -5.125 C 4.488281 -4.945312 4.785156 -4.859375 5.171875 -4.859375 C 5.554688 -4.859375 5.859375 -4.945312 6.078125 -5.125 C 6.296875 -5.300781 6.40625 -5.566406 6.40625 -5.921875 C 6.40625 -6.273438 6.296875 -6.535156 6.078125 -6.703125 C 5.859375 -6.878906 5.554688 -6.96875 5.171875 -6.96875 Z M 3.9375 0 C 3.6875 0 3.484375 0.0664062 3.328125 0.203125 C 3.179688 0.335938 3.109375 0.523438 3.109375 0.765625 C 3.109375 1.015625 3.1875 1.210938 3.34375 1.359375 C 3.5 1.503906 3.695312 1.578125 3.9375 1.578125 L 6.4375 1.578125 C 6.664062 1.578125 6.863281 1.503906 7.03125 1.359375 C 7.195312 1.222656 7.28125 1.03125 7.28125 0.78125 C 7.28125 0.539062 7.195312 0.347656 7.03125 0.203125 C 6.875 0.0664062 6.675781 0 6.4375 0 Z M 3.9375 0 "/></g></g></g><g fill="#000000" fill-opacity="1"><g transform="translate(254.03406, 192.374987)"><g/></g></g><g fill="#000000" fill-opacity="1"><g transform="translate(259.360781, 192.374987)"><g><path d="M 8.5625 0 L 8.09375 -1.546875 L 4.234375 -1.546875 L 3.78125 0 L 0.15625 0 L 4.171875 -11.015625 L 8.28125 -11.015625 L 12.296875 0 Z M 4.96875 -4.015625 L 7.359375 -4.015625 L 6.203125 -7.9375 L 6.140625 -7.9375 Z M 4.96875 -4.015625 "/></g></g></g><g fill="#000000" fill-opacity="1"><g transform="translate(271.805795, 192.374987)"><g><path d="M 4.96875 -8.640625 C 6.101562 -8.640625 7.0625 -8.414062 7.84375 -7.96875 C 8.632812 -7.53125 9.03125 -6.847656 9.03125 -5.921875 L 6.0625 -5.921875 C 6.0625 -6.234375 5.921875 -6.453125 5.640625 -6.578125 C 5.453125 -6.679688 5.210938 -6.734375 4.921875 -6.734375 C 4.160156 -6.734375 3.78125 -6.550781 3.78125 -6.1875 C 3.78125 -5.988281 3.910156 -5.84375 4.171875 -5.75 C 4.441406 -5.664062 4.878906 -5.578125 5.484375 -5.484375 C 6.234375 -5.378906 6.859375 -5.253906 7.359375 -5.109375 C 7.859375 -4.960938 8.296875 -4.707031 8.671875 -4.34375 C 9.046875 -3.976562 9.234375 -3.460938 9.234375 -2.796875 C 9.234375 -1.722656 8.828125 -0.957031 8.015625 -0.5 C 7.210938 -0.0390625 6.160156 0.1875 4.859375 0.1875 C 4.117188 0.1875 3.414062 0.0820312 2.75 -0.125 C 2.09375 -0.332031 1.554688 -0.65625 1.140625 -1.09375 C 0.722656 -1.53125 0.515625 -2.082031 0.515625 -2.75 L 3.46875 -2.75 L 3.46875 -2.6875 C 3.476562 -2.320312 3.628906 -2.066406 3.921875 -1.921875 C 4.222656 -1.785156 4.535156 -1.71875 4.859375 -1.71875 C 5.742188 -1.71875 6.1875 -1.925781 6.1875 -2.34375 C 6.1875 -2.550781 6.046875 -2.703125 5.765625 -2.796875 C 5.492188 -2.890625 5.046875 -2.992188 4.421875 -3.109375 C 3.660156 -3.234375 3.035156 -3.367188 2.546875 -3.515625 C 2.066406 -3.671875 1.644531 -3.925781 1.28125 -4.28125 C 0.914062 -4.632812 0.734375 -5.132812 0.734375 -5.78125 C 0.734375 -6.8125 1.125 -7.546875 1.90625 -7.984375 C 2.695312 -8.421875 3.71875 -8.640625 4.96875 -8.640625 Z M 4.96875 -8.640625 "/></g></g></g><g fill="#000000" fill-opacity="1"><g transform="translate(281.579449, 192.374987)"><g><path d="M 4.96875 -8.640625 C 6.101562 -8.640625 7.0625 -8.414062 7.84375 -7.96875 C 8.632812 -7.53125 9.03125 -6.847656 9.03125 -5.921875 L 6.0625 -5.921875 C 6.0625 -6.234375 5.921875 -6.453125 5.640625 -6.578125 C 5.453125 -6.679688 5.210938 -6.734375 4.921875 -6.734375 C 4.160156 -6.734375 3.78125 -6.550781 3.78125 -6.1875 C 3.78125 -5.988281 3.910156 -5.84375 4.171875 -5.75 C 4.441406 -5.664062 4.878906 -5.578125 5.484375 -5.484375 C 6.234375 -5.378906 6.859375 -5.253906 7.359375 -5.109375 C 7.859375 -4.960938 8.296875 -4.707031 8.671875 -4.34375 C 9.046875 -3.976562 9.234375 -3.460938 9.234375 -2.796875 C 9.234375 -1.722656 8.828125 -0.957031 8.015625 -0.5 C 7.210938 -0.0390625 6.160156 0.1875 4.859375 0.1875 C 4.117188 0.1875 3.414062 0.0820312 2.75 -0.125 C 2.09375 -0.332031 1.554688 -0.65625 1.140625 -1.09375 C 0.722656 -1.53125 0.515625 -2.082031 0.515625 -2.75 L 3.46875 -2.75 L 3.46875 -2.6875 C 3.476562 -2.320312 3.628906 -2.066406 3.921875 -1.921875 C 4.222656 -1.785156 4.535156 -1.71875 4.859375 -1.71875 C 5.742188 -1.71875 6.1875 -1.925781 6.1875 -2.34375 C 6.1875 -2.550781 6.046875 -2.703125 5.765625 -2.796875 C 5.492188 -2.890625 5.046875 -2.992188 4.421875 -3.109375 C 3.660156 -3.234375 3.035156 -3.367188 2.546875 -3.515625 C 2.066406 -3.671875 1.644531 -3.925781 1.28125 -4.28125 C 0.914062 -4.632812 0.734375 -5.132812 0.734375 -5.78125 C 0.734375 -6.8125 1.125 -7.546875 1.90625 -7.984375 C 2.695312 -8.421875 3.71875 -8.640625 4.96875 -8.640625 Z M 4.96875 -8.640625 "/></g></g></g><g fill="#000000" fill-opacity="1"><g transform="translate(291.353103, 192.374987)"><g><path d="M 1.078125 -9.4375 L 1.078125 -11.59375 L 4.25 -11.59375 L 4.25 -9.4375 Z M 1.078125 0 L 1.078125 -8.453125 L 4.25 -8.453125 L 4.25 0 Z M 1.078125 0 "/></g></g></g><g fill="#000000" fill-opacity="1"><g transform="translate(296.679824, 192.374987)"><g><path d="M 4.96875 -8.640625 C 6.101562 -8.640625 7.0625 -8.414062 7.84375 -7.96875 C 8.632812 -7.53125 9.03125 -6.847656 9.03125 -5.921875 L 6.0625 -5.921875 C 6.0625 -6.234375 5.921875 -6.453125 5.640625 -6.578125 C 5.453125 -6.679688 5.210938 -6.734375 4.921875 -6.734375 C 4.160156 -6.734375 3.78125 -6.550781 3.78125 -6.1875 C 3.78125 -5.988281 3.910156 -5.84375 4.171875 -5.75 C 4.441406 -5.664062 4.878906 -5.578125 5.484375 -5.484375 C 6.234375 -5.378906 6.859375 -5.253906 7.359375 -5.109375 C 7.859375 -4.960938 8.296875 -4.707031 8.671875 -4.34375 C 9.046875 -3.976562 9.234375 -3.460938 9.234375 -2.796875 C 9.234375 -1.722656 8.828125 -0.957031 8.015625 -0.5 C 7.210938 -0.0390625 6.160156 0.1875 4.859375 0.1875 C 4.117188 0.1875 3.414062 0.0820312 2.75 -0.125 C 2.09375 -0.332031 1.554688 -0.65625 1.140625 -1.09375 C 0.722656 -1.53125 0.515625 -2.082031 0.515625 -2.75 L 3.46875 -2.75 L 3.46875 -2.6875 C 3.476562 -2.320312 3.628906 -2.066406 3.921875 -1.921875 C 4.222656 -1.785156 4.535156 -1.71875 4.859375 -1.71875 C 5.742188 -1.71875 6.1875 -1.925781 6.1875 -2.34375 C 6.1875 -2.550781 6.046875 -2.703125 5.765625 -2.796875 C 5.492188 -2.890625 5.046875 -2.992188 4.421875 -3.109375 C 3.660156 -3.234375 3.035156 -3.367188 2.546875 -3.515625 C 2.066406 -3.671875 1.644531 -3.925781 1.28125 -4.28125 C 0.914062 -4.632812 0.734375 -5.132812 0.734375 -5.78125 C 0.734375 -6.8125 1.125 -7.546875 1.90625 -7.984375 C 2.695312 -8.421875 3.71875 -8.640625 4.96875 -8.640625 Z M 4.96875 -8.640625 "/></g></g></g><g fill="#000000" fill-opacity="1"><g transform="translate(306.45349, 192.374987)"><g><path d="M 6.59375 -8.453125 L 6.59375 -6.28125 L 4.796875 -6.28125 L 4.796875 -3.078125 C 4.796875 -2.691406 4.859375 -2.410156 4.984375 -2.234375 C 5.117188 -2.054688 5.359375 -1.96875 5.703125 -1.96875 L 6.59375 -1.96875 L 6.59375 -0.09375 C 6.332031 -0.0078125 6 0.0546875 5.59375 0.109375 C 5.1875 0.160156 4.835938 0.1875 4.546875 0.1875 C 3.609375 0.1875 2.882812 0.0195312 2.375 -0.3125 C 1.863281 -0.65625 1.609375 -1.238281 1.609375 -2.0625 L 1.609375 -6.28125 L 0.4375 -6.28125 L 0.4375 -8.453125 L 1.75 -8.453125 L 2.4375 -11.015625 L 4.796875 -11.015625 L 4.796875 -8.453125 Z M 6.59375 -8.453125 "/></g></g></g><g fill="#000000" fill-opacity="1"><g transform="translate(313.555785, 192.374987)"><g><path d="M 5.140625 -8.640625 C 6.429688 -8.640625 7.476562 -8.421875 8.28125 -7.984375 C 9.09375 -7.554688 9.5 -6.859375 9.5 -5.890625 L 9.5 -2.59375 C 9.5 -2.40625 9.539062 -2.253906 9.625 -2.140625 C 9.71875 -2.023438 9.847656 -1.96875 10.015625 -1.96875 L 10.59375 -1.96875 L 10.59375 -0.125 C 10.5625 -0.101562 10.476562 -0.0664062 10.34375 -0.015625 C 10.207031 0.0234375 10.015625 0.0664062 9.765625 0.109375 C 9.523438 0.160156 9.242188 0.1875 8.921875 0.1875 C 8.304688 0.1875 7.796875 0.09375 7.390625 -0.09375 C 6.992188 -0.28125 6.722656 -0.535156 6.578125 -0.859375 C 6.171875 -0.546875 5.71875 -0.289062 5.21875 -0.09375 C 4.71875 0.09375 4.128906 0.1875 3.453125 0.1875 C 1.472656 0.1875 0.484375 -0.597656 0.484375 -2.171875 C 0.484375 -2.992188 0.703125 -3.617188 1.140625 -4.046875 C 1.585938 -4.484375 2.222656 -4.78125 3.046875 -4.9375 C 3.878906 -5.101562 4.96875 -5.1875 6.3125 -5.1875 L 6.3125 -5.59375 C 6.3125 -5.925781 6.195312 -6.175781 5.96875 -6.34375 C 5.738281 -6.519531 5.445312 -6.609375 5.09375 -6.609375 C 4.757812 -6.609375 4.472656 -6.546875 4.234375 -6.421875 C 3.992188 -6.304688 3.875 -6.125 3.875 -5.875 L 3.875 -5.8125 L 0.734375 -5.8125 C 0.722656 -5.863281 0.71875 -5.9375 0.71875 -6.03125 C 0.71875 -6.832031 1.097656 -7.46875 1.859375 -7.9375 C 2.628906 -8.40625 3.722656 -8.640625 5.140625 -8.640625 Z M 6.3125 -3.6875 C 5.40625 -3.6875 4.734375 -3.585938 4.296875 -3.390625 C 3.867188 -3.191406 3.65625 -2.925781 3.65625 -2.59375 C 3.65625 -2.0625 4.019531 -1.796875 4.75 -1.796875 C 5.164062 -1.796875 5.53125 -1.90625 5.84375 -2.125 C 6.15625 -2.351562 6.3125 -2.628906 6.3125 -2.953125 Z M 6.3125 -3.6875 "/></g></g></g><g fill="#000000" fill-opacity="1"><g transform="translate(324.225225, 192.374987)"><g><path d="M 6.78125 -8.640625 C 7.757812 -8.640625 8.492188 -8.367188 8.984375 -7.828125 C 9.484375 -7.285156 9.734375 -6.5 9.734375 -5.46875 L 9.734375 0 L 6.546875 0 L 6.546875 -5.09375 C 6.546875 -5.445312 6.453125 -5.734375 6.265625 -5.953125 C 6.078125 -6.171875 5.8125 -6.28125 5.46875 -6.28125 C 5.070312 -6.28125 4.75 -6.148438 4.5 -5.890625 C 4.257812 -5.640625 4.140625 -5.328125 4.140625 -4.953125 L 4.140625 0 L 0.953125 0 L 0.953125 -8.453125 L 3.5625 -8.453125 L 3.78125 -7.171875 C 4.101562 -7.617188 4.535156 -7.972656 5.078125 -8.234375 C 5.617188 -8.503906 6.1875 -8.640625 6.78125 -8.640625 Z M 6.78125 -8.640625 "/></g></g></g><g fill="#000000" fill-opacity="1"><g transform="translate(334.894666, 192.374987)"><g><path d="M 6.59375 -8.453125 L 6.59375 -6.28125 L 4.796875 -6.28125 L 4.796875 -3.078125 C 4.796875 -2.691406 4.859375 -2.410156 4.984375 -2.234375 C 5.117188 -2.054688 5.359375 -1.96875 5.703125 -1.96875 L 6.59375 -1.96875 L 6.59375 -0.09375 C 6.332031 -0.0078125 6 0.0546875 5.59375 0.109375 C 5.1875 0.160156 4.835938 0.1875 4.546875 0.1875 C 3.609375 0.1875 2.882812 0.0195312 2.375 -0.3125 C 1.863281 -0.65625 1.609375 -1.238281 1.609375 -2.0625 L 1.609375 -6.28125 L 0.4375 -6.28125 L 0.4375 -8.453125 L 1.75 -8.453125 L 2.4375 -11.015625 L 4.796875 -11.015625 L 4.796875 -8.453125 Z M 6.59375 -8.453125 "/></g></g></g></svg>